Coordinates
version=1
nRows=11
nColumns=36
inDegrees=yes

Units are S.I. units (second, meters, Newtons, ...)
If the header above contains a line with 'inDegrees', this indicates whether rotational values are in degrees (yes) or radians (no).

endheader
time	pelvis_tilt	pelvis_list	pelvis_rotation	pelvis_tx	pelvis_ty	pelvis_tz	hip_flexion_r	hip_adduction_r	hip_rotation_r	knee_angle_r	knee_angle_r_beta	ankle_angle_r	subtalar_angle_r	mtp_angle_r	hip_flexion_l	hip_adduction_l	hip_rotation_l	knee_angle_l	knee_angle_l_beta	ankle_angle_l	subtalar_angle_l	mtp_angle_l	lumbar_extension	lumbar_bending	lumbar_rotation	arm_flex_r	arm_add_r	arm_rot_r	elbow_flex_r	pro_sup_r	arm_flex_l	arm_add_l	arm_rot_l	elbow_flex_l	pro_sup_l
      3.46666670	    -10.60014060	      7.65917669	      2.15795718	      0.57894164	      0.97278224	     -0.02740395	     10.14564847	     -1.42752149	      7.32991143	      5.02265147	      0.08766181	      6.78282015	     -1.22751166	     -7.49999316	     36.92444021	      7.78719065	      1.83146905	     23.54761739	      0.41098345	     -1.92431357	     -9.36783317	     -7.49999316	     -2.26217734	    -10.49656810	     -2.94281671	     49.44060562	      9.74086470	     75.65429304	    108.71125720	     93.60578157	     27.80418608	     19.70694414	     35.60220987	    117.93951437	     62.28290703
      3.48333330	    -10.48001920	      7.76905702	      1.87589426	      0.57859212	      0.97298989	     -0.02710477	      9.81589815	     -1.47376117	      7.60060283	      4.63885755	      0.08096334	      6.10590921	     -1.75565314	     -7.49999477	     36.15430112	      7.67485181	      1.74222166	     22.74061228	      0.39689856	     -2.49582750	     -9.38651183	     -7.49999477	     -2.18117327	    -10.47330021	     -2.54206745	     48.94015605	      9.50771211	     76.17659802	    109.17883117	     95.73206157	     28.28738850	     19.84974386	     46.76289476	    118.12271570	     71.78717839
      3.50000000	    -10.32775953	      7.71953034	      1.74168973	      0.57821930	      0.97236127	     -0.02758423	      9.54959104	     -1.40469112	      7.82807561	      4.34214898	      0.07578480	      5.71437514	     -2.12380596	     -7.49999541	     35.52699511	      7.57005540	      1.80418760	     22.09997374	      0.38571731	     -2.46467649	     -9.54548368	     -7.49999541	     -2.09270636	    -10.13404438	     -2.17013711	     48.58285657	      9.18712110	     76.10806097	    109.18317573	     95.28138045	     29.97099852	     19.88359016	     55.55237933	    117.46895722	     73.25905506
      3.51666670	    -10.04749877	      7.58391144	      1.47380955	      0.58134598	      0.97142547	     -0.02963423	      9.05235316	     -1.30429100	      7.82463786	      4.10728995	      0.07168573	      5.16814214	     -2.83409689	     -7.49999580	     34.52175241	      7.39942690	      2.25226130	     21.40311146	      0.37355477	     -2.03531647	     -9.63877977	     -7.49999580	     -1.94716874	     -9.52739897	     -1.80494804	     48.05780426	      8.65998048	     75.89678285	    109.21851195	     94.53869181	     31.62933705	     19.89570140	     61.85531010	    116.66558379	     73.86385568
      3.53333330	     -9.83405566	      7.44136781	      1.24702553	      0.58152126	      0.97329422	     -0.02929169	      8.61218387	     -1.17826616	      7.76459786	      3.78228905	      0.06601340	      4.84333346	     -2.99316309	     -7.49999631	     33.59880971	      7.17384487	      2.47226860	     20.65806657	      0.36055128	     -1.47441634	     -9.64717955	     -7.49999631	     -1.69468259	     -8.94918703	     -1.67234097	     47.29312146	      8.55747322	     74.94650521	    108.78407613	     92.72511206	     33.01719390	     19.27918415	     65.35178317	    116.19407095	     73.35932217
      3.55000000	     -9.65235575	      7.25631897	      0.95019112	      0.58083021	      0.97120573	     -0.02954818	      8.25435431	     -1.00969631	      7.47877521	      3.59459131	      0.06273745	      4.44063830	     -3.45477293	     -7.49999638	     32.79313808	      6.91519033	      2.77781527	     19.93778156	      0.34797993	     -0.96854006	     -9.89202056	     -7.49999638	     -1.37069865	     -8.41559151	     -1.49494308	     46.66610390	      8.38335888	     73.57716962	    108.35325308	     92.69609297	     33.91525695	     18.54273610	     67.08778972	    115.92040538	     73.63307424
      3.56666670	     -9.44714365	      7.05840660	      0.72949166	      0.58108985	      0.97087610	     -0.02944776	      8.06576389	     -0.79821408	      7.45123368	      3.65033581	      0.06371038	      4.59137594	     -3.40427960	     -7.49999663	     32.04682188	      6.62386719	      3.05481062	     19.32319940	      0.33725345	     -0.59601772	    -10.20383117	     -7.49999663	     -1.11071780	     -7.99060701	     -0.96145919	     46.17855015	      7.98421912	     71.97105527	    108.11388814	     91.70430265	     34.39028665	     17.67342779	     67.71368152	    116.01454811	     73.34646066
      3.58333330	     -9.38742335	      6.88239242	      0.45489121	      0.58098432	      0.97055470	     -0.02924396	      8.19324385	     -0.61984534	      7.15820038	      4.00428407	      0.06988794	      4.63668570	     -3.39394310	     -7.49999689	     31.47618744	      6.29428294	      3.40203837	     18.82104619	      0.32848922	     -0.18649383	    -10.24690495	     -7.49999689	     -0.70514200	     -7.62390028	     -0.56576801	     45.92124083	      8.00861286	     71.08872795	    107.72004968	     90.44193483	     34.73762211	     17.05754887	     67.43164556	    115.86147265	     72.76751441
      3.60000000	     -9.04803069	      6.82906190	      0.36616045	      0.58484828	      0.97098380	     -0.02693508	      7.73799764	     -0.53059406	      6.71432461	      4.18170745	      0.07298456	      4.15683938	     -4.00652600	     -7.49999713	     30.01927415	      6.10917192	      4.14577046	     17.62674362	      0.30764471	     -0.08090183	    -10.72069249	     -7.49999713	     -0.61572912	     -7.53849164	     -0.14551195	     45.48675156	      8.08452154	     70.15620089	    107.25883321	     89.53298490	     35.05595232	     16.24970720	     67.04877837	    116.20043690	     72.13848186
      3.61666670	     -8.92641446	      6.66813342	      0.15397767	      0.58740380	      0.97310723	     -0.02922814	      7.61044620	     -0.35081782	      5.19265357	      4.43409996	      0.07738964	      2.95589055	     -4.61199204	     -7.49999715	     28.66924008	      5.78744068	      4.66717185	     16.17402545	      0.28229000	     -0.06959868	    -10.61830616	     -7.49999715	     -0.22436896	     -7.22540278	      0.25360777	     45.12538940	      8.03930429	     70.19789296	    107.01861497	     89.64975299	     34.93540326	     15.96634069	     66.93888559	    116.19049606	     72.13849414
      3.63333330	     -8.36899989	      6.67454688	     -0.12685691	      0.58371557	      0.97542316	     -0.03080169	      6.95677237	     -0.35703214	      3.86668996	      4.16459739	      0.07268594	      1.23210865	     -5.71582099	     -7.49999721	     27.15111385	      5.71507759	      4.91742309	     14.82867627	      0.25880922	     -1.06003671	    -11.51165657	     -7.49999721	     -0.73601488	     -7.04909549	      0.35357450	     45.07123534	      8.05565158	     69.68712611	    106.53411017	     90.13237927	     34.97913671	     15.80863423	     66.13300141	    116.12540977	     72.04715554
